<svg width="134" height="32" viewBox="0 0 134 32" fill="none" xmlns="http://www.w3.org/2000/svg">
<g clip-path="url(#clip0_42178_95)">
<rect width="134" height="32" rx="16" fill="#C7A17A"/>
<path d="M36.4586 10.64C36.7572 10.64 36.9972 10.736 37.1786 10.928C37.3599 11.1093 37.4506 11.3547 37.4506 11.664V21.136C37.4506 21.4347 37.3652 21.6693 37.1946 21.84C37.0239 22.0107 36.7999 22.096 36.5226 22.096C36.2452 22.096 36.0266 22.0107 35.8666 21.84C35.7066 21.6693 35.6266 21.4347 35.6266 21.136V14.544L32.9066 19.696C32.7786 19.9307 32.6399 20.1067 32.4906 20.224C32.3412 20.3307 32.1652 20.384 31.9626 20.384C31.7599 20.384 31.5839 20.3307 31.4346 20.224C31.2852 20.1173 31.1466 19.9413 31.0186 19.696L28.2826 14.624V21.136C28.2826 21.424 28.1972 21.6587 28.0266 21.84C27.8666 22.0107 27.6479 22.096 27.3706 22.096C27.0932 22.096 26.8746 22.0107 26.7146 21.84C26.5546 21.6693 26.4746 21.4347 26.4746 21.136V11.664C26.4746 11.3547 26.5599 11.1093 26.7306 10.928C26.9119 10.736 27.1519 10.64 27.4506 10.64C27.8666 10.64 28.1919 10.8693 28.4266 11.328L31.9786 18.096L35.5146 11.328C35.7492 10.8693 36.0639 10.64 36.4586 10.64ZM44.5517 22.144C43.005 22.144 41.8317 21.744 41.0317 20.944C40.2317 20.144 39.8317 18.976 39.8317 17.44V11.664C39.8317 11.3547 39.9224 11.1093 40.1037 10.928C40.285 10.736 40.5304 10.64 40.8397 10.64C41.149 10.64 41.3944 10.736 41.5757 10.928C41.757 11.1093 41.8477 11.3547 41.8477 11.664V17.552C41.8477 18.5227 42.077 19.2587 42.5357 19.76C42.9944 20.2507 43.6664 20.496 44.5517 20.496C45.4264 20.496 46.093 20.2453 46.5517 19.744C47.0104 19.2427 47.2397 18.512 47.2397 17.552V11.664C47.2397 11.3547 47.3304 11.1093 47.5117 10.928C47.693 10.736 47.9384 10.64 48.2477 10.64C48.557 10.64 48.8024 10.736 48.9837 10.928C49.165 11.1093 49.2557 11.3547 49.2557 11.664V17.44C49.2557 18.9653 48.8557 20.1333 48.0557 20.944C47.2557 21.744 46.0877 22.144 44.5517 22.144ZM61.7759 20.768C61.8399 20.9067 61.8719 21.0453 61.8719 21.184C61.8719 21.4293 61.7706 21.6373 61.5679 21.808C61.3759 21.9787 61.1519 22.064 60.8959 22.064C60.7253 22.064 60.5653 22.0213 60.4159 21.936C60.2666 21.84 60.1493 21.696 60.0639 21.504L59.1039 19.36H53.4719L52.5119 21.504C52.4266 21.696 52.3093 21.84 52.1599 21.936C52.0106 22.0213 51.8453 22.064 51.6639 22.064C51.4186 22.064 51.1946 21.9787 50.9919 21.808C50.7893 21.6373 50.6879 21.4293 50.6879 21.184C50.6879 21.0453 50.7199 20.9067 50.7839 20.768L55.1999 11.28C55.2959 11.0667 55.4399 10.9067 55.6319 10.8C55.8346 10.6827 56.0479 10.624 56.2719 10.624C56.4959 10.624 56.7039 10.6827 56.8959 10.8C57.0986 10.9067 57.2479 11.0667 57.3439 11.28L61.7759 20.768ZM58.3999 17.76L56.2879 13.008L54.1759 17.76H58.3999ZM76.3147 10.64C76.6134 10.64 76.848 10.736 77.0187 10.928C77.2 11.1093 77.2907 11.3547 77.2907 11.664V21.056C77.2907 21.3653 77.2 21.616 77.0187 21.808C76.8374 22 76.6027 22.096 76.3147 22.096C75.9734 22.096 75.712 21.9733 75.5307 21.728L69.6907 14.128V21.056C69.6907 21.3653 69.6054 21.616 69.4347 21.808C69.264 22 69.0294 22.096 68.7307 22.096C68.432 22.096 68.1974 22 68.0267 21.808C67.856 21.616 67.7707 21.3653 67.7707 21.056V11.664C67.7707 11.3547 67.8614 11.1093 68.0427 10.928C68.224 10.736 68.464 10.64 68.7627 10.64C69.0934 10.64 69.3494 10.7627 69.5307 11.008L75.3547 18.576V11.664C75.3547 11.3547 75.44 11.1093 75.6107 10.928C75.792 10.736 76.0267 10.64 76.3147 10.64ZM88.3158 15.904C88.5611 15.904 88.7585 15.9787 88.9078 16.128C89.0571 16.2667 89.1318 16.4533 89.1318 16.688V20.128C89.1318 20.6187 89.0678 20.9653 88.9398 21.168C88.8118 21.3707 88.5505 21.536 88.1558 21.664C87.7291 21.8133 87.2331 21.9307 86.6678 22.016C86.1025 22.1013 85.5585 22.144 85.0358 22.144C83.8731 22.144 82.8651 21.9147 82.0118 21.456C81.1585 20.9973 80.5025 20.336 80.0438 19.472C79.5958 18.5973 79.3718 17.5573 79.3718 16.352C79.3718 15.168 79.5958 14.144 80.0438 13.28C80.5025 12.4053 81.1478 11.7387 81.9798 11.28C82.8118 10.8107 83.7931 10.576 84.9238 10.576C86.4278 10.576 87.6598 10.9813 88.6198 11.792C88.7478 11.9093 88.8385 12.0267 88.8918 12.144C88.9558 12.2613 88.9878 12.4 88.9878 12.56C88.9878 12.7947 88.9238 12.992 88.7958 13.152C88.6678 13.312 88.5131 13.392 88.3318 13.392C88.2145 13.392 88.1078 13.376 88.0118 13.344C87.9158 13.3013 87.8038 13.2373 87.6758 13.152C87.2065 12.8213 86.7691 12.592 86.3638 12.464C85.9585 12.3253 85.4998 12.256 84.9878 12.256C83.8251 12.256 82.9451 12.6027 82.3478 13.296C81.7611 13.9787 81.4678 14.9973 81.4678 16.352C81.4678 19.1253 82.6838 20.512 85.1158 20.512C85.8411 20.512 86.5665 20.4107 87.2918 20.208V17.376H85.4838C85.2278 17.376 85.0251 17.312 84.8758 17.184C84.7371 17.056 84.6678 16.8747 84.6678 16.64C84.6678 16.4053 84.7371 16.224 84.8758 16.096C85.0251 15.968 85.2278 15.904 85.4838 15.904H88.3158ZM101.682 20.768C101.746 20.9067 101.778 21.0453 101.778 21.184C101.778 21.4293 101.677 21.6373 101.474 21.808C101.282 21.9787 101.058 22.064 100.802 22.064C100.632 22.064 100.472 22.0213 100.322 21.936C100.173 21.84 100.056 21.696 99.9702 21.504L99.0102 19.36H93.3782L92.4182 21.504C92.3329 21.696 92.2155 21.84 92.0662 21.936C91.9169 22.0213 91.7515 22.064 91.5702 22.064C91.3249 22.064 91.1009 21.9787 90.8982 21.808C90.6955 21.6373 90.5942 21.4293 90.5942 21.184C90.5942 21.0453 90.6262 20.9067 90.6902 20.768L95.1062 11.28C95.2022 11.0667 95.3462 10.9067 95.5382 10.8C95.7409 10.6827 95.9542 10.624 96.1782 10.624C96.4022 10.624 96.6102 10.6827 96.8022 10.8C97.0049 10.9067 97.1542 11.0667 97.2502 11.28L101.682 20.768ZM98.3062 17.76L96.1942 13.008L94.0822 17.76H98.3062ZM109.061 10.992C109.253 10.7573 109.482 10.64 109.749 10.64C109.994 10.64 110.213 10.736 110.405 10.928C110.597 11.1093 110.693 11.328 110.693 11.584C110.693 11.7973 110.613 12 110.453 12.192L106.821 16.624V21.056C106.821 21.3867 106.725 21.6427 106.533 21.824C106.341 22.0053 106.095 22.096 105.797 22.096C105.487 22.096 105.237 22.0053 105.045 21.824C104.853 21.6427 104.757 21.3867 104.757 21.056V16.624L101.125 12.192C100.965 12 100.885 11.7973 100.885 11.584C100.885 11.328 100.981 11.1093 101.173 10.928C101.365 10.736 101.583 10.64 101.829 10.64C102.095 10.64 102.325 10.7573 102.517 10.992L105.797 15.056L109.061 10.992Z" fill="#F9FBFF"/>
</g>
<defs>
<clipPath id="clip0_42178_95">
<rect width="134" height="32" fill="white"/>
</clipPath>
</defs>
</svg>
